# xmcd
#
# Track frame offsets:
#	150
#	13872
#	27197
#	48446
#	65175
#	81577
#	98113
#	112232
#	128008
#	141990
#	161848
#	177094
#	195798
#	211848
#	225870
#	244154
#	261859
#	278197
#	295149
#	313901
#	340313
#
# Disc length: 4543 seconds
#
# Revision: 0
# Processed by: cddbd v1.5PL3 Copyright (c) Steve Scherf et al.
# Submitted via: audiograbber 1.83.01
#
DISCID=3911bd15
DTITLE=Guy Country - Top Tunes Karaoke
DYEAR=1900
DGENRE=Country
TTITLE0=Alan Jackson - A Little Bluer Than That
TTITLE1=Toby Keith - A Little Less Talk
TTITLE2=Kenny Chesney - A Lot Of Things Different
TTITLE3=Diamond Rio - A Beautiful Mess
TTITLE4=Toby Keith - Country Comes To Town
TTITLE5=Toby Keith - Courtesy of The Red White and Blue
TTITLE6=Kenny Chesney - Don't Happen Twice
TTITLE7=Brooks And Dunn - Every River
TTITLE8=Toby Keith - He Ain't Worth Missing
TTITLE9=Diamond Rio - I Believe
TTITLE10=Steve Azar - I Don't Have to Be Me Until Monday
TTITLE11=Kenny Chesney - I Lost It
TTITLE12=Darryl Worley - I Miss My Friend
TTITLE13=Emerson Drive - I Should Be Sleeping
TTITLE14=Brad Paisley - I Wish You'd Stay
TTITLE15=Anthony Smith - If That Ain't Country
TTITLE16=Trick Pony - Just What I Do
TTITLE17=Gary Allen - Man To Man
TTITLE18=Montgomery Gentry - My Town
TTITLE19=Mark Wills - Nineteen Something
TTITLE20=data - Data Track
EXTD=
EXTT0=
EXTT1=
EXTT2=
EXTT3=
EXTT4=
EXTT5=
EXTT6=
EXTT7=
EXTT8=
EXTT9=
EXTT10=
EXTT11=
EXTT12=
EXTT13=
EXTT14=
EXTT15=
EXTT16=
EXTT17=
EXTT18=
EXTT19=
EXTT20=
PLAYORDER=
